<mxfile host="app.diagrams.net" modified="2023-10-06T15:16:36.968Z" agent="Mozilla/5.0 (Windows NT 10.0; Win64; x64) AppleWebKit/537.36 (KHTML, like Gecko) Chrome/117.0.0.0 Safari/537.36" version="22.0.3" etag="XFr8CxU03RV9zI12-0Wq" type="github">
  <diagram name="Page-1" id="VBYptQeeYwleAzzgpqZY">
    <mxGraphModel>
      <root>
        <mxCell id="0" />
        <mxCell id="1" parent="0" />
      </root>
    </mxGraphModel>
  </diagram>
</mxfile>
